HIERARCHY
ROOT Hips
{
 OFFSET 0.000000 0.000000 0.000000
 CHANNELS 6 Xposition Yposition Zposition Yrotation Xrotation Zrotation
 JOINT Chest
 {
  OFFSET 0.000000 8.841881 -6.654894
  CHANNELS 3 Yrotation Xrotation Zrotation
  JOINT Chest2
  {
   OFFSET 0.000000 7.072353 0.028336
   CHANNELS 3 Yrotation Xrotation Zrotation
   JOINT Chest3
   {
    OFFSET 0.000000 10.125157 -0.014641
    CHANNELS 3 Yrotation Xrotation Zrotation
    JOINT Chest4
    {
     OFFSET 0.000000 10.441534 -0.016102
     CHANNELS 3 Yrotation Xrotation Zrotation
     JOINT Neck
     {
      OFFSET 0.000000 16.849355 0.013667
      CHANNELS 3 Yrotation Xrotation Zrotation
      JOINT Head
      {
       OFFSET 0.000000 10.107081 0.000000
       CHANNELS 3 Yrotation Xrotation Zrotation
       End Site
       {
        OFFSET 0.000000 15.162723 0.000000
       }
      }
     }
     JOINT RightCollar
     {
      OFFSET -2.775264 10.553866 0.006834
      CHANNELS 3 Yrotation Xrotation Zrotation
      JOINT RightShoulder
      {
       OFFSET -16.020521 0.000000 0.000000
       CHANNELS 3 Yrotation Xrotation Zrotation
       JOINT RightElbow
       {
        OFFSET -23.902096 0.000000 0.000000
        CHANNELS 3 Yrotation Xrotation Zrotation
        JOINT RightWrist
        {
         OFFSET -23.631001 0.000000 -0.000566
         CHANNELS 3 Yrotation Xrotation Zrotation
         End Site
         {
          OFFSET -18.828190 0.690323 0.103033
         }
        }
       }
      }
     }
     JOINT LeftCollar
     {
      OFFSET 2.775264 10.553866 0.006834
      CHANNELS 3 Yrotation Xrotation Zrotation
      JOINT LeftShoulder
      {
       OFFSET 16.020521 0.000000 0.000000
       CHANNELS 3 Yrotation Xrotation Zrotation
       JOINT LeftElbow
       {
        OFFSET 23.902096 0.000000 0.000000
        CHANNELS 3 Yrotation Xrotation Zrotation
        JOINT LeftWrist
        {
         OFFSET 23.631001 0.000000 -0.000566
         CHANNELS 3 Yrotation Xrotation Zrotation
         End Site
         {
          OFFSET 18.828190 0.690323 0.103033
         }
        }
       }
      }
     }
    }
   }
  }
 }
 JOINT RightHip
 {
  OFFSET -9.646452 0.046004 -0.007286
  CHANNELS 3 Yrotation Xrotation Zrotation
  JOINT RightKnee
  {
   OFFSET 0.000000 -48.923989 0.009793
   CHANNELS 3 Yrotation Xrotation Zrotation
   JOINT RightAnkle
   {
    OFFSET 0.000000 -37.831989 0.111451
    CHANNELS 3 Yrotation Xrotation Zrotation
    JOINT RightToe
    {
     OFFSET 0.000000 -8.084683 17.519885
     CHANNELS 3 Yrotation Xrotation Zrotation
     End Site
     {
      OFFSET 0.000000 -1.047441 5.170765
     }
    }
   }
  }
 }
 JOINT LeftHip
 {
  OFFSET 9.646452 0.044016 -0.006971
  CHANNELS 3 Yrotation Xrotation Zrotation
  JOINT LeftKnee
  {
   OFFSET 0.000000 -48.923989 0.009793
   CHANNELS 3 Yrotation Xrotation Zrotation
   JOINT LeftAnkle
   {
    OFFSET 0.000000 -37.831989 0.111451
    CHANNELS 3 Yrotation Xrotation Zrotation
    JOINT LeftToe
    {
     OFFSET 0.000000 -8.084683 17.519885
     CHANNELS 3 Yrotation Xrotation Zrotation
     End Site
     {
      OFFSET 0.000000 -1.047441 5.170765
     }
    }
   }
  }
 }
}
MOTION
Frames: 17
Frame Time: 0.004167
10.545558 96.350428 14.236554 1.524302 11.699151 0.407595 0.291619 0.939303 1.223927 0.015626 -13.074144 0.593200 0.014057 -0.127594 0.417584 0.024555 9.462862 0.120941 -0.226697 -2.448908 -1.036060 -0.386099 -4.550936 -1.918496 -1.057352 -6.572972 4.923038 -11.055330 -4.658661 68.294341 2.866233 -6.890493 -0.840470 -2.041903 2.800871 2.094465 -0.505762 -7.276097 -9.286306 8.995075 -4.229435 -63.444940 -1.924640 -6.552508 -4.867209 -0.610401 4.960831 -1.204804 -5.893614 -5.626424 -0.311389 -0.679093 0.821028 0.061810 -8.164787 -4.985610 2.935928 -0.000000 -0.000000 0.000000 5.165674 -9.136975 0.419773 0.266015 3.675666 -0.137420 6.976127 -5.751588 0.266463 0.000000 -0.000000 0.000000
10.550174 96.349148 14.231421 1.528562 11.685667 0.411903 0.288978 0.938929 1.214743 0.015293 -13.074344 0.588757 0.013804 -0.127735 0.414424 0.024328 9.462822 0.120026 -0.224666 -2.439157 -1.030312 -0.382656 -4.532785 -1.907893 -1.057201 -6.548479 4.922674 -11.060247 -4.658696 68.315499 2.862251 -6.888836 -0.844366 -2.042515 2.800290 2.095612 -0.499953 -7.247965 -9.265603 8.996784 -4.237042 -63.446593 -1.920281 -6.554288 -4.866327 -0.609794 4.961365 -1.210026 -5.890080 -5.612581 -0.316720 -0.694638 0.813092 0.057002 -8.161310 -4.981576 2.940217 0.000000 -0.000000 -0.000000 5.165988 -9.124866 0.418459 0.267534 3.671954 -0.147606 6.968941 -5.748643 0.272435 0.000000 0.000000 -0.000000
10.554825 96.347844 14.226263 1.532744 11.672111 0.416335 0.286327 0.938588 1.205420 0.014969 -13.074530 0.584247 0.013557 -0.127865 0.411217 0.024099 9.462785 0.119097 -0.222638 -2.429356 -1.024491 -0.379222 -4.514540 -1.897154 -1.056938 -6.523758 4.922205 -11.064909 -4.658862 68.336943 2.858037 -6.886942 -0.848275 -2.043158 2.799753 2.096977 -0.494182 -7.219527 -9.244642 8.998588 -4.244810 -63.448383 -1.915843 -6.555797 -4.865451 -0.609087 4.961906 -1.215323 -5.886602 -5.598643 -0.322153 -0.710317 0.805001 0.052091 -8.157590 -4.977434 2.944594 -0.000000 -0.000000 -0.000000 5.166275 -9.112631 0.417122 0.269300 3.668141 -0.158054 6.961621 -5.745617 0.278543 0.000000 -0.000000 0.000000
10.559500 96.346523 14.221089 1.536874 11.658507 0.420849 0.283670 0.938268 1.196003 0.014651 -13.074705 0.579690 0.013314 -0.127988 0.407980 0.023871 9.462750 0.118160 -0.220613 -2.419521 -1.018621 -0.375793 -4.496233 -1.886324 -1.056599 -6.498883 4.921667 -11.069401 -4.659117 68.358579 2.853669 -6.884890 -0.852192 -2.043822 2.799245 2.098487 -0.488434 -7.190887 -9.223507 9.000456 -4.252686 -63.450266 -1.911353 -6.557126 -4.864581 -0.608315 4.962454 -1.220668 -5.883161 -5.584642 -0.327655 -0.726087 0.796808 0.047111 -8.153707 -4.973220 2.949028 0.000000 -0.000000 -0.000000 5.166545 -9.100312 0.415772 0.271231 3.664260 -0.168675 6.954212 -5.742537 0.284743 -0.000000 0.000000 -0.000000
10.564186 96.345195 14.215906 1.540977 11.644878 0.425404 0.281010 0.937959 1.186539 0.014336 -13.074874 0.575111 0.013073 -0.128107 0.404727 0.023642 9.462716 0.117218 -0.218587 -2.409670 -1.012727 -0.372362 -4.477896 -1.875447 -1.056219 -6.473932 4.921094 -11.073807 -4.659414 68.380310 2.849222 -6.882760 -0.856113 -2.044497 2.798752 2.100071 -0.482689 -7.162147 -9.202284 9.002358 -4.260615 -63.452196 -1.906836 -6.558363 -4.863713 -0.607510 4.963005 -1.226037 -5.879740 -5.570608 -0.333190 -0.741901 0.788563 0.042098 -8.149743 -4.968970 2.953491 0.000000 -0.000000 0.000000 5.166806 -9.087950 0.414414 0.273246 3.660346 -0.179385 6.946759 -5.739429 0.290988 0.000000 -0.000000 0.000000
10.568873 96.343866 14.210723 1.545079 11.631249 0.429957 0.278353 0.937650 1.177075 0.014023 -13.075044 0.570531 0.012833 -0.128226 0.401474 0.023414 9.462682 0.116276 -0.216560 -2.399820 -1.006831 -0.368927 -4.459561 -1.864567 -1.055833 -6.448982 4.920521 -11.078210 -4.659709 68.402042 2.844775 -6.880631 -0.860035 -2.045172 2.798260 2.101654 -0.476933 -7.133412 -9.181057 9.004260 -4.268543 -63.454128 -1.902319 -6.559601 -4.862845 -0.606704 4.963557 -1.231407 -5.876321 -5.556573 -0.338722 -0.757714 0.780318 0.037087 -8.145780 -4.964720 2.957954 -0.000000 0.000000 -0.000000 5.167066 -9.075588 0.413058 0.275262 3.656433 -0.190094 6.939307 -5.736319 0.297232 -0.000000 -0.000000 0.000000
10.573548 96.342546 14.205548 1.549205 11.617644 0.434468 0.275703 0.937330 1.167656 0.013708 -13.075218 0.565974 0.012593 -0.128348 0.398236 0.023186 9.462647 0.115338 -0.214529 -2.389987 -1.000958 -0.365481 -4.441259 -1.853730 -1.055476 -6.424108 4.919984 -11.082694 -4.659958 68.423678 2.840406 -6.878583 -0.863954 -2.045836 2.797753 2.103165 -0.471149 -7.104785 -9.159910 9.006133 -4.276417 -63.456016 -1.897828 -6.560927 -4.861973 -0.605930 4.964108 -1.236751 -5.872886 -5.542569 -0.344215 -0.773481 0.772122 0.032111 -8.141897 -4.960506 2.962388 0.000000 0.000000 0.000000 5.167334 -9.063268 0.411711 0.277196 3.652556 -0.200717 6.931900 -5.733235 0.303429 0.000000 -0.000000 0.000000
10.578199 96.341241 14.200390 1.553380 11.604086 0.438893 0.273063 0.936989 1.158330 0.013390 -13.075402 0.561462 0.012349 -0.128477 0.395030 0.022959 9.462610 0.114409 -0.212491 -2.380190 -0.995132 -0.362022 -4.423023 -1.842981 -1.055184 -6.399386 4.919517 -11.087343 -4.660115 68.445125 2.836190 -6.876695 -0.867864 -2.046478 2.797218 2.104531 -0.465320 -7.076369 -9.138929 9.007944 -4.284182 -63.457817 -1.893390 -6.562434 -4.861096 -0.605219 4.964656 -1.242046 -5.869415 -5.528626 -0.349636 -0.789157 0.764028 0.027207 -8.138177 -4.956363 2.966766 -0.000000 0.000000 -0.000000 5.167618 -9.051033 0.410380 0.278968 3.648748 -0.211166 6.924582 -5.730203 0.309535 0.000000 -0.000000 -0.000000
10.582815 96.339962 14.195257 1.557631 11.590600 0.443193 0.270438 0.936616 1.149142 0.013064 -13.075601 0.557017 0.012102 -0.128617 0.391869 0.022733 9.462570 0.113494 -0.210447 -2.370445 -0.989378 -0.358544 -4.404885 -1.832363 -1.054992 -6.374893 4.919156 -11.092241 -4.660134 68.466286 2.832206 -6.875046 -0.871762 -2.047089 2.796639 2.105679 -0.459430 -7.048268 -9.118198 9.009661 -4.291784 -63.459483 -1.889031 -6.564210 -4.860211 -0.604606 4.965198 -1.247266 -5.865891 -5.514776 -0.354947 -0.804697 0.756086 0.022410 -8.134701 -4.952328 2.971057 -0.000000 -0.000000 0.000000 5.167928 -9.038923 0.409073 0.280494 3.645044 -0.221354 6.917399 -5.727249 0.315502 0.000000 0.000000 0.000000
10.587385 96.338714 14.190158 1.561983 11.577209 0.447324 0.267833 0.936200 1.140140 0.012729 -13.075820 0.552662 0.011848 -0.128770 0.388770 0.022508 9.462527 0.112597 -0.208393 -2.360770 -0.983718 -0.355044 -4.386876 -1.821922 -1.054935 -6.350706 4.918936 -11.097471 -4.659972 68.487066 2.828532 -6.873717 -0.875645 -2.047657 2.796002 2.106537 -0.453463 -7.020585 -9.097801 9.011254 -4.299170 -63.460970 -1.884776 -6.566346 -4.859316 -0.604121 4.965733 -1.252388 -5.862296 -5.501051 -0.360114 -0.820055 0.748347 0.017753 -8.131550 -4.948437 2.975233 0.000000 0.000000 -0.000000 5.168272 -9.026982 0.407797 0.281694 3.641478 -0.231193 6.910394 -5.724401 0.321285 -0.000000 -0.000000 -0.000000
10.591896 96.337508 14.185099 1.566462 11.563937 0.451245 0.265252 0.935730 1.131369 0.012382 -13.076064 0.548421 0.011587 -0.128941 0.385749 0.022285 9.462478 0.111722 -0.206328 -2.351181 -0.978177 -0.351516 -4.369027 -1.811701 -1.055050 -6.326901 4.918890 -11.103118 -4.659582 68.507370 2.825244 -6.872787 -0.879507 -2.048172 2.795294 2.107032 -0.447405 -6.993423 -9.077823 9.012690 -4.306286 -63.462232 -1.880653 -6.568933 -4.858407 -0.603797 4.966256 -1.257386 -5.858611 -5.487481 -0.365102 -0.835186 0.740863 0.013272 -8.128805 -4.944725 2.979265 0.000000 0.000000 0.000000 5.168658 -9.015252 0.406562 0.282483 3.638084 -0.240597 6.903613 -5.721685 0.326839 0.000000 0.000000 -0.000000
10.596337 96.336350 14.180091 1.571093 11.550809 0.454915 0.262698 0.935195 1.122877 0.012021 -13.076338 0.544314 0.011317 -0.129133 0.382820 0.022064 9.462423 0.110874 -0.204250 -2.341695 -0.972779 -0.347956 -4.351372 -1.801746 -1.055372 -6.303553 4.919055 -11.109264 -4.658919 68.527102 2.822421 -6.872335 -0.883345 -2.048623 2.794498 2.107090 -0.441239 -6.966887 -9.058348 9.013937 -4.313077 -63.463224 -1.876686 -6.572060 -4.857484 -0.603668 4.966767 -1.262236 -5.854818 -5.474098 -0.369874 -0.850044 0.733685 0.009001 -8.126549 -4.941228 2.983125 -0.000000 0.000000 -0.000000 5.169096 -9.003774 0.405374 0.282781 3.634896 -0.249478 6.897101 -5.719128 0.332117 -0.000000 -0.000000 0.000000
10.600696 96.335249 14.175141 1.575902 11.537848 0.458291 0.260177 0.934586 1.114709 0.011641 -13.076647 0.540366 0.011036 -0.129350 0.379999 0.021845 9.462361 0.110057 -0.202158 -2.332331 -0.967547 -0.344361 -4.333941 -1.792101 -1.055936 -6.280739 4.919465 -11.115995 -4.657937 68.546168 2.820139 -6.872439 -0.887154 -2.048999 2.793600 2.106641 -0.434950 -6.941080 -9.039461 9.014964 -4.319490 -63.463900 -1.872903 -6.575817 -4.856542 -0.603765 4.967262 -1.266914 -5.850898 -5.460933 -0.374396 -0.864586 0.726864 0.004976 -8.124861 -4.937982 2.986784 0.000000 0.000000 -0.000000 5.169594 -8.992590 0.404241 0.282506 3.631947 -0.257749 6.890900 -5.716757 0.337074 0.000000 0.000000 0.000000
10.604968 96.334209 14.170260 1.580995 11.524981 0.461386 0.257653 0.933921 1.106853 0.011229 -13.076981 0.536572 0.010733 -0.129584 0.377281 0.021625 9.462294 0.109270 -0.200060 -2.323037 -0.962483 -0.340748 -4.316644 -1.782766 -1.056783 -6.258395 4.920137 -11.123458 -4.656636 68.564627 2.818507 -6.873249 -0.890999 -2.049267 2.792560 2.105546 -0.428529 -6.915906 -9.021071 9.015779 -4.325517 -63.464326 -1.869228 -6.580456 -4.855489 -0.604140 4.967715 -1.271379 -5.846876 -5.447844 -0.378639 -0.878981 0.720278 0.001136 -8.123677 -4.934913 2.990248 0.000000 -0.000000 0.000000 5.170346 -8.981632 0.403160 0.281394 3.629224 -0.265464 6.884968 -5.714552 0.341740 -0.000000 0.000000 -0.000000
10.609163 96.333225 14.165445 1.586411 11.512136 0.464254 0.255100 0.933227 1.099253 0.010778 -13.077329 0.532902 0.010404 -0.129828 0.374643 0.021401 9.462224 0.108506 -0.197965 -2.313765 -0.957559 -0.337134 -4.299385 -1.773692 -1.057900 -6.236397 4.921043 -11.131655 -4.655064 68.582620 2.817508 -6.874769 -0.894924 -2.049417 2.791367 2.103799 -0.421990 -6.891193 -9.003027 9.016419 -4.331210 -63.464592 -1.865583 -6.586039 -4.854265 -0.604791 4.968113 -1.275632 -5.842787 -5.434706 -0.382625 -0.893388 0.713796 -0.002593 -8.122866 -4.931936 2.993554 -0.000000 0.000000 -0.000000 5.171466 -8.970808 0.402119 0.279370 3.626677 -0.272749 6.879229 -5.712472 0.346182 0.000000 0.000000 0.000000
10.613290 96.332288 14.160685 1.592077 11.499337 0.466915 0.252534 0.932499 1.091884 0.010297 -13.077693 0.529345 0.010055 -0.130083 0.372081 0.021176 9.462151 0.107764 -0.195868 -2.304530 -0.952760 -0.333512 -4.282197 -1.764851 -1.059243 -6.214731 4.922151 -11.140453 -4.653250 68.600177 2.817035 -6.876870 -0.898898 -2.049473 2.790053 2.101520 -0.415347 -6.866927 -8.985326 9.016902 -4.336610 -63.464691 -1.861993 -6.592370 -4.852925 -0.605670 4.968470 -1.279713 -5.838629 -5.421576 -0.386391 -0.907743 0.707450 -0.006201 -8.122413 -4.929066 2.996717 0.000000 -0.000000 0.000000 5.172843 -8.960131 0.401116 0.276628 3.624295 -0.279632 6.873676 -5.710510 0.350415 0.000000 -0.000000 0.000000
10.617360 96.331390 14.155969 1.597918 11.486610 0.469388 0.249971 0.931732 1.084724 0.009796 -13.078075 0.525891 0.009694 -0.130351 0.369587 0.020950 9.462075 0.107042 -0.193767 -2.295348 -0.948072 -0.329876 -4.265107 -1.756214 -1.060767 -6.193383 4.923431 -11.149717 -4.651222 68.617325 2.816980 -6.879421 -0.902887 -2.049461 2.788649 2.098830 -0.408617 -6.843093 -8.967963 9.017243 -4.341754 -63.464617 -1.858483 -6.599257 -4.851522 -0.606726 4.968802 -1.283657 -5.834401 -5.408512 -0.389975 -0.921981 0.701275 -0.009679 -8.122302 -4.926323 2.999751 0.000000 -0.000000 0.000000 5.174366 -8.949610 0.400149 0.273362 3.622063 -0.286140 6.868307 -5.708661 0.354452 0.000000 0.000000 -0.000000
